<svg width="245" height="200" viewBox="0 0 245 200" fill="none" xmlns="http://www.w3.org/2000/svg">
<path d="M215.593 183.333L134.252 107.076C127.186 112.456 117.258 112.456 110.192 107.076L28.8509 183.333H215.593ZM227.778 171.911V32.3527C227.273 32.8551 226.736 33.3355 226.164 33.791L147.424 96.5786L227.778 171.911ZM16.6667 171.911L97.0205 96.5788L18.2794 33.791C17.7115 33.3381 17.1734 32.8571 16.6667 32.351V171.911ZM215.138 16.6667H29.3044C28.4454 17.1307 27.8639 18.0233 27.8639 19.0484C27.8639 19.8645 28.2398 20.6376 28.8879 21.1544L120.454 94.1688C121.482 94.989 122.961 94.989 123.99 94.1688L215.556 21.1544C216.749 20.2028 216.925 18.4884 215.949 17.3252C215.721 17.0542 215.445 16.832 215.138 16.6667ZM22.2222 0H222.222C234.495 0 244.444 9.94923 244.444 22.2222V177.778C244.444 190.051 234.495 200 222.222 200H22.2222C9.94923 200 0 190.051 0 177.778V22.2222C0 9.94923 9.94923 0 22.2222 0Z" fill="black"/>
</svg>
