<svg xmlns="http://www.w3.org/2000/svg" xmlns:xlink="http://www.w3.org/1999/xlink" viewBox="0 0 24 30" version="1.1" x="0px" y="0px"><title>Mail</title><desc>Created with Sketch.</desc><g stroke="none" stroke-width="1" fill="none" fill-rule="evenodd"><path d="M20.4034144,19.5 L13.0826641,12.6367966 C12.4467394,13.1210604 11.5532447,13.1210678 10.9173121,12.6368189 L3.59658561,19.5 L20.4034144,19.5 Z M21.5,18.471951 L21.5,5.91173985 C21.4546141,5.95695871 21.4062045,6.00019598 21.3547983,6.04118712 L14.2681308,11.6920737 L21.5,18.471951 Z M2.5,18.471951 L9.73184481,11.6920965 L2.64514874,6.04118712 C2.59403563,6.00042969 2.54561003,5.95714281 2.5,5.91158984 L2.5,18.471951 Z M20.3624577,4.5 L3.63739459,4.5 C3.56008203,4.54176269 3.50774703,4.62210083 3.50774703,4.71435193 C3.50774703,4.78780778 3.54157755,4.85738479 3.59991113,4.90389981 L11.8408464,11.475196 C11.9334135,11.5490087 12.0665335,11.5490087 12.1591006,11.475196 L20.4000359,4.90389981 C20.507449,4.81824893 20.5232809,4.6639517 20.4353975,4.5592673 C20.4149215,4.53487687 20.3900902,4.51488183 20.3624577,4.5 Z M3,3 L21,3 C22.1045695,3 23,3.8954305 23,5 L23,19 C23,20.1045695 22.1045695,21 21,21 L3,21 C1.8954305,21 1,20.1045695 1,19 L1,5 C1,3.8954305 1.8954305,3 3,3 Z" fill="#000000" fill-rule="nonzero"/></g><text x="0" y="39" fill="#000000" font-size="5px" font-weight="bold" font-family="'Helvetica Neue', Helvetica, Arial-Unicode, Arial, Sans-serif">Created by Daniel Leonard</text><text x="0" y="44" fill="#000000" font-size="5px" font-weight="bold" font-family="'Helvetica Neue', Helvetica, Arial-Unicode, Arial, Sans-serif">from the Noun Project</text></svg>