<svg width="250" height="250" viewBox="0 0 250 250" fill="none" xmlns="http://www.w3.org/2000/svg">
<path d="M225 125C225 69.7715 180.229 25 125 25C69.7715 25 25 69.7715 25 125C25 174.913 61.5686 216.283 109.375 223.785V153.906H83.9844V125H109.375V102.969C109.375 77.9062 124.304 64.0625 147.146 64.0625C158.087 64.0625 169.531 66.0156 169.531 66.0156V90.625H156.921C144.499 90.625 140.625 98.3334 140.625 106.242V125H168.359L163.926 153.906H140.625V223.785C188.431 216.283 225 174.913 225 125Z" fill="#1877F2"/>
<path d="M163.926 153.906L168.359 125H140.625V106.242C140.625 98.3336 144.499 90.6252 156.921 90.6252H169.531V66.0158C169.531 66.0158 158.087 64.0627 147.146 64.0627C124.304 64.0627 109.375 77.9065 109.375 102.969V125H83.9844V153.906H109.375V223.785C114.466 224.584 119.684 225 125 225C130.316 225 135.534 224.584 140.625 223.785V153.906H163.926Z" fill="white"/>
</svg>
