<svg width="250" height="250" viewBox="0 0 250 250" fill="none" xmlns="http://www.w3.org/2000/svg">
<path d="M225 25H25V225H225V25Z" fill="white"/>
<path d="M72.7273 91.8887C72.8942 90.2393 72.2653 88.6091 71.0337 87.4991L58.4885 72.3864V70.1289H97.4413L127.55 136.161L154.02 70.1289H191.154V72.3864L180.428 82.6705C179.503 83.3754 179.044 84.5339 179.236 85.6805V161.244C179.044 162.391 179.503 163.549 180.428 164.254L190.903 174.538V176.796H138.213V174.538L149.065 164.003C150.131 162.937 150.131 162.624 150.131 160.993V99.9153L119.96 176.545H115.883L80.7562 99.9153V151.273C80.4634 153.433 81.1805 155.606 82.7007 157.168L96.8141 174.287V176.545H56.7949V174.287L70.9083 157.168C72.4174 155.604 73.0928 153.416 72.7273 151.273V91.8887Z" fill="#12100E"/>
</svg>
