<svg width="250" height="250" viewBox="0 0 250 250" fill="none" xmlns="http://www.w3.org/2000/svg">
<rect x="25" y="25" width="200" height="200" rx="40" fill="white"/>
<path d="M164.709 158.253C163.915 157.823 162.949 157.865 162.195 158.362C156.488 162.123 150.703 164.029 144.998 164.029C141.933 164.029 139.299 163.343 136.936 161.925C135.33 160.972 133.838 159.305 133.303 157.857C132.784 156.48 132.79 152.773 132.798 147.642L132.801 116.36H158.729C160.085 116.36 161.184 115.258 161.184 113.898V91.9178C161.184 90.5585 160.085 89.4563 158.729 89.4563H132.801V63.4615C132.801 62.1023 131.701 61 130.345 61H112.878C111.637 61 110.591 61.929 110.44 63.1647C109.711 69.1851 108.349 74.1839 106.39 78.0303C104.48 81.8211 101.895 85.12 98.7038 87.8395C96.1471 90.0254 91.7703 92.1403 85.6943 94.1258C84.6836 94.4561 84 95.4004 84 96.4662V113.899C84 115.258 85.0991 116.36 86.4555 116.36H100.675V157.057C100.675 163.054 101.309 167.566 102.615 170.855C103.946 174.195 106.309 177.34 109.64 180.205C112.916 183.019 116.903 185.22 121.504 186.752C125.964 188.21 129.516 189 135.506 189C140.569 189 145.396 188.474 149.853 187.435C154.234 186.41 159.192 184.599 164.59 182.052C165.451 181.646 166 180.778 166 179.825V160.42C165.999 159.514 165.504 158.682 164.709 158.253Z" fill="black"/>
</svg>
