<svg width="250" height="250" viewBox="0 0 250 250" fill="none" xmlns="http://www.w3.org/2000/svg">
<path d="M93.3755 173.16C99.5461 180.877 105.831 190.581 109.12 196.442C113.125 204.062 114.785 209.207 117.765 218.422C119.507 223.469 121.168 224.999 124.652 224.999C128.462 224.999 130.204 222.427 131.539 218.422C134.323 209.776 136.472 203.199 139.875 196.93C152.998 172.183 174.391 154.599 186.44 130.503C186.44 130.503 194.369 115.784 194.369 95.1721C194.369 75.9601 186.554 62.6094 186.554 62.6094L93.4243 173.322L93.3755 173.16Z" fill="#34A853"/>
<path d="M61.7893 127.897C69.295 144.992 83.6063 159.971 93.3751 173.159L145.15 111.778C145.15 111.778 137.839 121.351 124.635 121.351C109.917 121.351 97.9338 109.629 97.9338 94.8129C97.9338 84.6208 104.007 77.5547 104.007 77.5547C65.9084 83.2206 68.025 92.4521 61.6753 127.864L61.7893 127.897Z" fill="#FBBC04"/>
<path d="M145.801 28.207C163.059 33.759 177.712 45.4653 186.504 62.5607L145.15 111.893C145.15 111.893 151.223 104.794 151.223 94.6349C151.223 79.5095 138.458 68.0963 124.684 68.0963C111.61 68.0963 104.169 77.5558 104.169 77.5558C107.344 70.3269 140.151 30.6655 145.85 28.2233L145.801 28.207Z" fill="#4285F4"/>
<path d="M71.2324 49.9105C81.5222 37.6669 99.562 25 124.472 25C136.504 25 145.638 28.1911 145.638 28.1911L104.121 77.5236C101.32 76.0046 74.0002 54.7297 71.2324 49.8453V49.9105Z" fill="#1A73E8"/>
<path d="M61.7893 127.899C61.7893 127.899 55 114.418 55 95.0107C55 76.6128 62.1964 60.4943 71.2813 50.0742L104.17 77.7525L61.8382 127.899H61.7893Z" fill="#EA4335"/>
</svg>
