<svg width="338" height="120" viewBox="0 0 338 120" fill="none" xmlns="http://www.w3.org/2000/svg">
<path d="M230 60C230 72.6708 225.989 85.0163 218.541 95.2671C211.093 105.518 200.592 113.148 188.541 117.063C176.49 120.979 163.51 120.979 151.459 117.063C139.408 113.148 128.907 105.518 121.459 95.2671C114.011 85.0163 110 72.6708 110 60C110 47.3292 114.011 34.9837 121.459 24.7329C128.907 14.482 139.408 6.85208 151.459 2.93661C163.51 -0.978871 176.49 -0.978869 188.541 2.93661L170 60H230Z" fill="#8223C7"/>
<path d="M230 60C230 47.3292 225.989 34.9837 218.541 24.7329C211.093 14.482 200.592 6.85209 188.541 2.93661L170 60H230Z" fill="#2A0447"/>
<path d="M18.648 21.752C19.896 22.376 20.844 23.192 21.492 24.2C22.164 25.208 22.5 26.372 22.5 27.692C22.5 29.252 22.056 30.62 21.168 31.796C20.28 32.948 19.032 33.848 17.424 34.496C15.816 35.12 13.956 35.432 11.844 35.432C9.732 35.432 7.872 35.12 6.264 34.496C4.68 33.848 3.444 32.948 2.556 31.796C1.692 30.62 1.26 29.252 1.26 27.692C1.26 26.372 1.584 25.208 2.232 24.2C2.904 23.192 3.852 22.376 5.076 21.752C4.14 21.176 3.42 20.456 2.916 19.592C2.412 18.704 2.16 17.696 2.16 16.568C2.16 15.104 2.568 13.832 3.384 12.752C4.2 11.672 5.34 10.844 6.804 10.268C8.268 9.668 9.948 9.368 11.844 9.368C13.764 9.368 15.456 9.668 16.92 10.268C18.408 10.844 19.56 11.672 20.376 12.752C21.192 13.832 21.6 15.104 21.6 16.568C21.6 17.696 21.348 18.704 20.844 19.592C20.34 20.456 19.608 21.176 18.648 21.752ZM11.844 13.652C10.668 13.652 9.72 13.94 9 14.516C8.304 15.068 7.956 15.836 7.956 16.82C7.956 17.78 8.304 18.536 9 19.088C9.696 19.64 10.644 19.916 11.844 19.916C13.044 19.916 14.004 19.64 14.724 19.088C15.444 18.536 15.804 17.78 15.804 16.82C15.804 15.836 15.444 15.068 14.724 14.516C14.004 13.94 13.044 13.652 11.844 13.652ZM11.844 31.148C13.308 31.148 14.46 30.824 15.3 30.176C16.164 29.504 16.596 28.616 16.596 27.512C16.596 26.408 16.164 25.532 15.3 24.884C14.46 24.236 13.308 23.912 11.844 23.912C10.404 23.912 9.264 24.236 8.424 24.884C7.584 25.532 7.164 26.408 7.164 27.512C7.164 28.64 7.584 29.528 8.424 30.176C9.264 30.824 10.404 31.148 11.844 31.148ZM35.9696 35.432C33.8816 35.432 32.0216 34.916 30.3896 33.884C28.7576 32.852 27.4736 31.364 26.5376 29.42C25.6256 27.452 25.1696 25.112 25.1696 22.4C25.1696 19.688 25.6256 17.36 26.5376 15.416C27.4736 13.448 28.7576 11.948 30.3896 10.916C32.0216 9.884 33.8816 9.368 35.9696 9.368C38.0576 9.368 39.9176 9.884 41.5496 10.916C43.1816 11.948 44.4536 13.448 45.3656 15.416C46.3016 17.36 46.7696 19.688 46.7696 22.4C46.7696 25.112 46.3016 27.452 45.3656 29.42C44.4536 31.364 43.1816 32.852 41.5496 33.884C39.9176 34.916 38.0576 35.432 35.9696 35.432ZM35.9696 30.5C37.5056 30.5 38.7056 29.84 39.5696 28.52C40.4576 27.2 40.9016 25.16 40.9016 22.4C40.9016 19.64 40.4576 17.6 39.5696 16.28C38.7056 14.96 37.5056 14.3 35.9696 14.3C34.4576 14.3 33.2576 14.96 32.3696 16.28C31.5056 17.6 31.0736 19.64 31.0736 22.4C31.0736 25.16 31.5056 27.2 32.3696 28.52C33.2576 29.84 34.4576 30.5 35.9696 30.5ZM55.4352 23.408C53.5872 23.408 52.0752 22.784 50.8992 21.536C49.7472 20.264 49.1712 18.572 49.1712 16.46C49.1712 14.348 49.7472 12.668 50.8992 11.42C52.0752 10.148 53.5872 9.512 55.4352 9.512C57.2832 9.512 58.7832 10.148 59.9352 11.42C61.0872 12.668 61.6632 14.348 61.6632 16.46C61.6632 18.572 61.0872 20.264 59.9352 21.536C58.7832 22.784 57.2832 23.408 55.4352 23.408ZM70.4472 9.8H74.7312L57.5232 35H53.2392L70.4472 9.8ZM55.4352 20.456C56.2512 20.456 56.8872 20.12 57.3432 19.448C57.8232 18.776 58.0632 17.78 58.0632 16.46C58.0632 15.14 57.8232 14.144 57.3432 13.472C56.8872 12.8 56.2512 12.464 55.4352 12.464C54.6432 12.464 54.0072 12.812 53.5272 13.508C53.0472 14.18 52.8072 15.164 52.8072 16.46C52.8072 17.756 53.0472 18.752 53.5272 19.448C54.0072 20.12 54.6432 20.456 55.4352 20.456ZM72.5352 35.288C71.3352 35.288 70.2552 35.012 69.2952 34.46C68.3592 33.884 67.6272 33.068 67.0992 32.012C66.5712 30.956 66.3072 29.732 66.3072 28.34C66.3072 26.948 66.5712 25.724 67.0992 24.668C67.6272 23.612 68.3592 22.808 69.2952 22.256C70.2552 21.68 71.3352 21.392 72.5352 21.392C74.3832 21.392 75.8832 22.028 77.0352 23.3C78.2112 24.548 78.7992 26.228 78.7992 28.34C78.7992 30.452 78.2112 32.144 77.0352 33.416C75.8832 34.664 74.3832 35.288 72.5352 35.288ZM72.5352 32.336C73.3512 32.336 73.9872 32 74.4432 31.328C74.9232 30.632 75.1632 29.636 75.1632 28.34C75.1632 27.044 74.9232 26.06 74.4432 25.388C73.9872 24.692 73.3512 24.344 72.5352 24.344C71.7432 24.344 71.1072 24.68 70.6272 25.352C70.1472 26.024 69.9072 27.02 69.9072 28.34C69.9072 29.66 70.1472 30.656 70.6272 31.328C71.1072 32 71.7432 32.336 72.5352 32.336Z" fill="#141414"/>
<path d="M280.232 85.248V90H261.188V86.22L270.908 77.04C271.94 76.056 272.636 75.216 272.996 74.52C273.356 73.8 273.536 73.092 273.536 72.396C273.536 71.388 273.188 70.62 272.492 70.092C271.82 69.54 270.824 69.264 269.504 69.264C268.4 69.264 267.404 69.48 266.516 69.912C265.628 70.32 264.884 70.944 264.284 71.784L260.036 69.048C261.02 67.584 262.376 66.444 264.104 65.628C265.832 64.788 267.812 64.368 270.044 64.368C271.916 64.368 273.548 64.68 274.94 65.304C276.356 65.904 277.448 66.768 278.216 67.896C279.008 69 279.404 70.308 279.404 71.82C279.404 73.188 279.116 74.472 278.54 75.672C277.964 76.872 276.848 78.24 275.192 79.776L269.396 85.248H280.232ZM293.368 90.432C291.28 90.432 289.42 89.916 287.788 88.884C286.156 87.852 284.872 86.364 283.936 84.42C283.024 82.452 282.568 80.112 282.568 77.4C282.568 74.688 283.024 72.36 283.936 70.416C284.872 68.448 286.156 66.948 287.788 65.916C289.42 64.884 291.28 64.368 293.368 64.368C295.456 64.368 297.316 64.884 298.948 65.916C300.58 66.948 301.852 68.448 302.764 70.416C303.7 72.36 304.168 74.688 304.168 77.4C304.168 80.112 303.7 82.452 302.764 84.42C301.852 86.364 300.58 87.852 298.948 88.884C297.316 89.916 295.456 90.432 293.368 90.432ZM293.368 85.5C294.904 85.5 296.104 84.84 296.968 83.52C297.856 82.2 298.3 80.16 298.3 77.4C298.3 74.64 297.856 72.6 296.968 71.28C296.104 69.96 294.904 69.3 293.368 69.3C291.856 69.3 290.656 69.96 289.768 71.28C288.904 72.6 288.472 74.64 288.472 77.4C288.472 80.16 288.904 82.2 289.768 83.52C290.656 84.84 291.856 85.5 293.368 85.5ZM312.834 78.408C310.986 78.408 309.474 77.784 308.298 76.536C307.146 75.264 306.57 73.572 306.57 71.46C306.57 69.348 307.146 67.668 308.298 66.42C309.474 65.148 310.986 64.512 312.834 64.512C314.682 64.512 316.182 65.148 317.334 66.42C318.486 67.668 319.062 69.348 319.062 71.46C319.062 73.572 318.486 75.264 317.334 76.536C316.182 77.784 314.682 78.408 312.834 78.408ZM327.846 64.8H332.13L314.922 90H310.638L327.846 64.8ZM312.834 75.456C313.65 75.456 314.286 75.12 314.742 74.448C315.222 73.776 315.462 72.78 315.462 71.46C315.462 70.14 315.222 69.144 314.742 68.472C314.286 67.8 313.65 67.464 312.834 67.464C312.042 67.464 311.406 67.812 310.926 68.508C310.446 69.18 310.206 70.164 310.206 71.46C310.206 72.756 310.446 73.752 310.926 74.448C311.406 75.12 312.042 75.456 312.834 75.456ZM329.934 90.288C328.734 90.288 327.654 90.012 326.694 89.46C325.758 88.884 325.026 88.068 324.498 87.012C323.97 85.956 323.706 84.732 323.706 83.34C323.706 81.948 323.97 80.724 324.498 79.668C325.026 78.612 325.758 77.808 326.694 77.256C327.654 76.68 328.734 76.392 329.934 76.392C331.782 76.392 333.282 77.028 334.434 78.3C335.61 79.548 336.198 81.228 336.198 83.34C336.198 85.452 335.61 87.144 334.434 88.416C333.282 89.664 331.782 90.288 329.934 90.288ZM329.934 87.336C330.75 87.336 331.386 87 331.842 86.328C332.322 85.632 332.562 84.636 332.562 83.34C332.562 82.044 332.322 81.06 331.842 80.388C331.386 79.692 330.75 79.344 329.934 79.344C329.142 79.344 328.506 79.68 328.026 80.352C327.546 81.024 327.306 82.02 327.306 83.34C327.306 84.66 327.546 85.656 328.026 86.328C328.506 87 329.142 87.336 329.934 87.336Z" fill="#141414"/>
<path d="M1.602 61V48.22H6.894C7.446 48.22 7.95 48.34 8.406 48.58C8.874 48.808 9.276 49.114 9.612 49.498C9.948 49.87 10.212 50.296 10.404 50.776C10.596 51.256 10.692 51.742 10.692 52.234C10.692 52.762 10.602 53.272 10.422 53.764C10.242 54.244 9.99 54.67 9.666 55.042C9.342 55.414 8.952 55.714 8.496 55.942C8.052 56.17 7.554 56.284 7.002 56.284H2.862V61H1.602ZM2.862 55.168H6.948C7.32 55.168 7.656 55.09 7.956 54.934C8.268 54.766 8.532 54.55 8.748 54.286C8.964 54.01 9.132 53.698 9.252 53.35C9.372 52.99 9.432 52.618 9.432 52.234C9.432 51.838 9.36 51.466 9.216 51.118C9.084 50.758 8.898 50.446 8.658 50.182C8.43 49.918 8.154 49.714 7.83 49.57C7.518 49.414 7.188 49.336 6.84 49.336H2.862V55.168ZM11.9533 54.52C11.9533 53.752 12.0853 52.99 12.3493 52.234C12.6253 51.466 13.0213 50.782 13.5373 50.182C14.0533 49.582 14.6893 49.096 15.4453 48.724C16.2013 48.34 17.0593 48.148 18.0193 48.148C19.1593 48.148 20.1313 48.406 20.9353 48.922C21.7513 49.438 22.3513 50.11 22.7353 50.938L21.7453 51.55C21.5413 51.13 21.2893 50.776 20.9893 50.488C20.7013 50.2 20.3893 49.966 20.0533 49.786C19.7173 49.606 19.3693 49.48 19.0093 49.408C18.6493 49.324 18.2953 49.282 17.9473 49.282C17.1793 49.282 16.5013 49.438 15.9133 49.75C15.3253 50.062 14.8273 50.47 14.4193 50.974C14.0233 51.478 13.7233 52.048 13.5193 52.684C13.3153 53.308 13.2133 53.944 13.2133 54.592C13.2133 55.3 13.3333 55.978 13.5733 56.626C13.8253 57.274 14.1613 57.85 14.5813 58.354C15.0133 58.846 15.5173 59.242 16.0933 59.542C16.6813 59.83 17.3173 59.974 18.0013 59.974C18.3613 59.974 18.7273 59.932 19.0993 59.848C19.4833 59.752 19.8493 59.608 20.1973 59.416C20.5573 59.212 20.8873 58.966 21.1873 58.678C21.4873 58.378 21.7393 58.018 21.9433 57.598L22.9873 58.138C22.7833 58.618 22.4953 59.044 22.1233 59.416C21.7513 59.776 21.3373 60.082 20.8813 60.334C20.4253 60.586 19.9393 60.778 19.4233 60.91C18.9193 61.042 18.4213 61.108 17.9293 61.108C17.0533 61.108 16.2493 60.916 15.5173 60.532C14.7853 60.148 14.1553 59.65 13.6273 59.038C13.0993 58.414 12.6853 57.712 12.3853 56.932C12.0973 56.14 11.9533 55.336 11.9533 54.52Z" fill="#141414"/>
<path d="M272.924 116V105.506L268.262 113.624H267.524L262.862 105.506V116H261.602V103.22H262.898L267.884 111.968L272.906 103.22H274.184V116H272.924ZM281.008 116.18C280.324 116.18 279.7 116.054 279.136 115.802C278.572 115.538 278.08 115.184 277.66 114.74C277.252 114.296 276.934 113.78 276.706 113.192C276.478 112.604 276.364 111.986 276.364 111.338C276.364 110.678 276.478 110.054 276.706 109.466C276.946 108.878 277.27 108.362 277.678 107.918C278.098 107.474 278.59 107.12 279.154 106.856C279.718 106.592 280.336 106.46 281.008 106.46C281.68 106.46 282.298 106.592 282.862 106.856C283.438 107.12 283.93 107.474 284.338 107.918C284.758 108.362 285.082 108.878 285.31 109.466C285.55 110.054 285.67 110.678 285.67 111.338C285.67 111.986 285.556 112.604 285.328 113.192C285.1 113.78 284.776 114.296 284.356 114.74C283.948 115.184 283.456 115.538 282.88 115.802C282.316 116.054 281.692 116.18 281.008 116.18ZM277.606 111.356C277.606 111.884 277.696 112.376 277.876 112.832C278.056 113.276 278.296 113.672 278.596 114.02C278.908 114.356 279.268 114.62 279.676 114.812C280.096 115.004 280.54 115.1 281.008 115.1C281.476 115.1 281.914 115.004 282.322 114.812C282.742 114.608 283.108 114.338 283.42 114.002C283.732 113.654 283.978 113.252 284.158 112.796C284.338 112.34 284.428 111.848 284.428 111.32C284.428 110.804 284.338 110.318 284.158 109.862C283.978 109.394 283.732 108.992 283.42 108.656C283.108 108.308 282.742 108.038 282.322 107.846C281.914 107.642 281.476 107.54 281.008 107.54C280.54 107.54 280.102 107.642 279.694 107.846C279.286 108.038 278.926 108.308 278.614 108.656C278.302 109.004 278.056 109.412 277.876 109.88C277.696 110.336 277.606 110.828 277.606 111.356ZM292.307 116.18C291.563 116.18 290.879 115.994 290.255 115.622C289.643 115.25 289.163 114.77 288.815 114.182V116H287.717V102.86H288.941V108.584C289.361 107.948 289.865 107.438 290.453 107.054C291.041 106.658 291.725 106.46 292.505 106.46C293.165 106.46 293.753 106.598 294.269 106.874C294.797 107.15 295.241 107.522 295.601 107.99C295.973 108.446 296.255 108.968 296.447 109.556C296.651 110.132 296.753 110.726 296.753 111.338C296.753 111.998 296.639 112.622 296.411 113.21C296.183 113.798 295.871 114.314 295.475 114.758C295.079 115.19 294.605 115.538 294.053 115.802C293.513 116.054 292.931 116.18 292.307 116.18ZM292.019 115.1C292.535 115.1 293.003 114.998 293.423 114.794C293.855 114.578 294.221 114.296 294.521 113.948C294.833 113.588 295.073 113.186 295.241 112.742C295.421 112.286 295.511 111.818 295.511 111.338C295.511 110.846 295.427 110.372 295.259 109.916C295.103 109.46 294.875 109.058 294.575 108.71C294.287 108.35 293.933 108.068 293.513 107.864C293.105 107.648 292.655 107.54 292.163 107.54C291.791 107.54 291.443 107.606 291.119 107.738C290.795 107.858 290.495 108.026 290.219 108.242C289.943 108.458 289.697 108.71 289.481 108.998C289.265 109.274 289.085 109.568 288.941 109.88V112.796C288.989 113.12 289.115 113.426 289.319 113.714C289.535 113.99 289.787 114.23 290.075 114.434C290.375 114.638 290.693 114.8 291.029 114.92C291.377 115.04 291.707 115.1 292.019 115.1ZM298.827 116V106.622H300.051V116H298.827ZM298.827 104.66V102.86H300.051V104.66H298.827ZM302.8 102.86H304.024V113.876C304.024 114.224 304.12 114.5 304.312 114.704C304.504 114.896 304.774 114.992 305.122 114.992C305.254 114.992 305.41 114.974 305.59 114.938C305.77 114.902 305.938 114.854 306.094 114.794L306.31 115.784C306.082 115.88 305.8 115.958 305.464 116.018C305.14 116.078 304.858 116.108 304.618 116.108C304.054 116.108 303.61 115.952 303.286 115.64C302.962 115.316 302.8 114.866 302.8 114.29V102.86ZM311.701 116.18C311.017 116.18 310.387 116.054 309.811 115.802C309.247 115.538 308.755 115.184 308.335 114.74C307.915 114.284 307.585 113.762 307.345 113.174C307.117 112.586 307.003 111.956 307.003 111.284C307.003 110.624 307.117 110.006 307.345 109.43C307.585 108.842 307.909 108.332 308.317 107.9C308.737 107.456 309.235 107.108 309.811 106.856C310.387 106.592 311.011 106.46 311.683 106.46C312.367 106.46 312.991 106.592 313.555 106.856C314.131 107.108 314.623 107.456 315.031 107.9C315.439 108.344 315.757 108.854 315.985 109.43C316.213 110.006 316.327 110.618 316.327 111.266C316.327 111.362 316.327 111.458 316.327 111.554C316.327 111.65 316.321 111.716 316.309 111.752H308.281C308.317 112.256 308.431 112.724 308.623 113.156C308.827 113.576 309.085 113.942 309.397 114.254C309.709 114.566 310.063 114.812 310.459 114.992C310.867 115.16 311.299 115.244 311.755 115.244C312.055 115.244 312.355 115.202 312.655 115.118C312.955 115.034 313.231 114.92 313.483 114.776C313.735 114.632 313.963 114.458 314.167 114.254C314.371 114.038 314.527 113.804 314.635 113.552L315.697 113.84C315.553 114.188 315.349 114.506 315.085 114.794C314.821 115.07 314.515 115.316 314.167 115.532C313.819 115.736 313.435 115.892 313.015 116C312.595 116.12 312.157 116.18 311.701 116.18ZM315.157 110.816C315.121 110.312 315.001 109.856 314.797 109.448C314.605 109.028 314.353 108.668 314.041 108.368C313.741 108.068 313.387 107.834 312.979 107.666C312.583 107.498 312.157 107.414 311.701 107.414C311.245 107.414 310.813 107.498 310.405 107.666C309.997 107.834 309.637 108.068 309.325 108.368C309.025 108.668 308.779 109.028 308.587 109.448C308.407 109.868 308.299 110.324 308.263 110.816H315.157Z" fill="#141414"/>
<path d="M157 93H34.5C32.8431 93 31.5 91.6569 31.5 90V69" stroke="#FBFBFB" stroke-width="2"/>
<path d="M199 38H287C288.657 38 290 39.3431 290 41V51" stroke="#FBFBFB" stroke-width="2"/>
<circle cx="157" cy="93" r="2" fill="#FBFBFB"/>
<circle cx="199" cy="38" r="2" fill="#FBFBFB"/>
<path fill-rule="evenodd" clip-rule="evenodd" d="M226.205 39C225.954 38.3289 225.692 37.6621 225.417 37H287C289.209 37 291 38.7909 291 41V51H289V41C289 39.8954 288.105 39 287 39H226.205Z" fill="#141414"/>
<path fill-rule="evenodd" clip-rule="evenodd" d="M119.246 92H34.5C33.3954 92 32.5 91.1046 32.5 90V69H30.5V90C30.5 92.2091 32.2909 94 34.5 94H120.563C120.11 93.3413 119.671 92.6745 119.246 92Z" fill="#141414"/>
</svg>
