<svg width="470" height="230" viewBox="0 0 470 230" fill="none" xmlns="http://www.w3.org/2000/svg">
<g filter="url(#filter0_d)">
<rect x="15" y="13" width="439.735" height="200" rx="5" fill="#FBFBFB"/>
</g>
<path d="M289.229 86.907C289.229 91.0911 287.963 94.7328 285.432 97.8321C282.952 100.88 279.311 102.404 274.507 102.404H254.051V50.4897H273.732C277.813 50.4897 281.222 51.7553 283.96 54.2864C286.697 56.7659 288.066 60.2527 288.066 64.7467C288.015 69.9639 286.336 73.5798 283.03 75.5944C287.162 77.9189 289.229 81.6897 289.229 86.907ZM280.163 65.3666C280.163 63.4553 279.646 61.9056 278.613 60.7176C277.632 59.5295 276.185 58.9354 274.274 58.9354H262.264V71.5652H274.197C275.953 71.5652 277.374 70.9195 278.458 69.6282C279.543 68.2851 280.111 66.8646 280.163 65.3666ZM280.783 87.1394C280.731 85.2282 280.163 83.6268 279.078 82.3354C277.993 80.9924 276.573 80.295 274.817 80.2434H262.187V94.1904H274.507C276.418 94.1904 277.942 93.4672 279.078 92.0209C280.215 90.5745 280.783 88.9474 280.783 87.1394Z" fill="url(#paint0_linear)"/>
<path d="M328.876 102.404H320.818V100.467C318.545 102.378 315.523 103.333 311.752 103.333C307.361 103.333 304.081 101.835 301.912 98.8394C299.742 95.8434 298.657 92.3566 298.657 88.3792V64.5142H306.638V88.2242C306.535 90.1871 307.18 91.9692 308.575 93.5705C309.97 95.1202 311.726 95.8434 313.844 95.7401C316.065 95.7401 317.744 95.0944 318.88 93.803C320.069 92.5116 320.663 90.652 320.663 88.2242V64.5142H328.876V102.404Z" fill="url(#paint1_linear)"/>
<path d="M365.108 92.1758C365.056 95.4818 363.765 98.1679 361.234 100.234C358.703 102.249 355.216 103.282 350.773 103.333C345.711 103.282 341.062 101.345 336.826 97.5222L342.25 92.0984C345.401 94.5778 348.242 95.8434 350.773 95.895C352.581 95.9467 354.105 95.5851 355.345 94.8103C356.636 93.9838 357.256 92.9765 357.204 91.7884C357.256 90.6003 356.688 89.4897 355.5 88.4566C354.312 87.4235 352.401 86.3904 349.766 85.3573C345.944 84.0659 343.154 82.4646 341.398 80.5533C339.642 78.6421 338.763 76.4209 338.763 73.8897C338.608 71.3586 339.642 69.0083 341.863 66.8388C344.136 64.6176 347.106 63.507 350.773 63.507C356.352 63.6103 360.975 65.599 364.643 69.4732L359.452 74.6646C356.92 72.3401 354.079 71.1262 350.928 71.0229C349.637 71.0229 348.604 71.307 347.829 71.8752C347.106 72.3917 346.718 73.1149 346.667 74.0447C346.615 74.8712 346.899 75.5427 347.519 76.0593C348.191 76.5758 349.818 77.3248 352.401 78.3063C356.068 79.4427 359.09 81.0957 361.466 83.2652C363.894 85.4348 365.108 88.405 365.108 92.1758Z" fill="url(#paint2_linear)"/>
<path d="M409.413 64.5142L386.943 121.077H377.8L385.393 102.404L370.826 64.5142H379.737L390.12 91.0911L400.115 64.5142H409.413Z" fill="url(#paint3_linear)"/>
<path d="M289.229 143.861C289.229 148.045 287.963 151.686 285.432 154.786C282.952 157.833 279.311 159.357 274.507 159.357H254.051V107.443H273.732C277.813 107.443 281.222 108.709 283.96 111.24C286.697 113.72 288.066 117.206 288.066 121.7C288.015 126.918 286.336 130.533 283.03 132.548C287.162 134.873 289.229 138.643 289.229 143.861ZM280.163 122.32C280.163 120.409 279.646 118.859 278.613 117.671C277.632 116.483 276.185 115.889 274.274 115.889H262.264V128.519H274.197C275.953 128.519 277.374 127.873 278.458 126.582C279.543 125.239 280.111 123.818 280.163 122.32ZM280.783 144.093C280.731 142.182 280.163 140.58 279.078 139.289C277.993 137.946 276.573 137.249 274.817 137.197H262.187V151.144H274.507C276.418 151.144 277.942 150.421 279.078 148.975C280.215 147.528 280.783 145.901 280.783 144.093Z" fill="url(#paint4_linear)"/>
<path d="M328.876 159.357H320.818V157.42C318.545 159.331 315.523 160.287 311.752 160.287C307.361 160.287 304.081 158.789 301.912 155.793C299.742 152.797 298.657 149.31 298.657 145.333V121.468H306.638V145.178C306.535 147.141 307.18 148.923 308.575 150.524C309.97 152.074 311.726 152.797 313.844 152.694C316.065 152.694 317.744 152.048 318.88 150.757C320.069 149.465 320.663 147.606 320.663 145.178V121.468H328.876V159.357Z" fill="url(#paint5_linear)"/>
<path d="M365.108 149.129C365.056 152.435 363.765 155.122 361.234 157.188C358.703 159.202 355.216 160.235 350.773 160.287C345.711 160.235 341.062 158.298 336.826 154.476L342.25 149.052C345.401 151.531 348.242 152.797 350.773 152.849C352.581 152.9 354.105 152.539 355.345 151.764C356.636 150.937 357.256 149.93 357.204 148.742C357.256 147.554 356.688 146.443 355.5 145.41C354.312 144.377 352.401 143.344 349.766 142.311C345.944 141.02 343.154 139.418 341.398 137.507C339.642 135.596 338.763 133.375 338.763 130.843C338.608 128.312 339.642 125.962 341.863 123.792C344.136 121.571 347.106 120.461 350.773 120.461C356.352 120.564 360.975 122.553 364.643 126.427L359.452 131.618C356.92 129.294 354.079 128.08 350.928 127.976C349.637 127.976 348.604 128.261 347.829 128.829C347.106 129.345 346.718 130.069 346.667 130.998C346.615 131.825 346.899 132.496 347.519 133.013C348.191 133.529 349.818 134.278 352.401 135.26C356.068 136.396 359.09 138.049 361.466 140.219C363.894 142.388 365.108 145.359 365.108 149.129Z" fill="url(#paint6_linear)"/>
<path d="M289.229 86.907C289.229 91.0911 287.963 94.7328 285.432 97.8321C282.952 100.88 279.311 102.404 274.507 102.404H254.051V50.4897H273.732C277.813 50.4897 281.222 51.7553 283.96 54.2864C286.697 56.7659 288.066 60.2527 288.066 64.7467C288.015 69.9639 286.336 73.5798 283.03 75.5944C287.162 77.9189 289.229 81.6897 289.229 86.907ZM280.163 65.3666C280.163 63.4553 279.646 61.9056 278.613 60.7176C277.632 59.5295 276.185 58.9354 274.274 58.9354H262.264V71.5652H274.197C275.953 71.5652 277.374 70.9195 278.458 69.6282C279.543 68.2851 280.111 66.8646 280.163 65.3666ZM280.783 87.1394C280.731 85.2282 280.163 83.6268 279.078 82.3354C277.993 80.9924 276.573 80.295 274.817 80.2434H262.187V94.1904H274.507C276.418 94.1904 277.942 93.4672 279.078 92.0209C280.215 90.5745 280.783 88.9474 280.783 87.1394Z" stroke="#022B5A" stroke-width="0.5"/>
<path d="M328.876 102.404H320.818V100.467C318.545 102.378 315.523 103.333 311.752 103.333C307.361 103.333 304.081 101.835 301.912 98.8394C299.742 95.8434 298.657 92.3566 298.657 88.3792V64.5142H306.638V88.2242C306.535 90.1871 307.18 91.9692 308.575 93.5705C309.97 95.1202 311.726 95.8434 313.844 95.7401C316.065 95.7401 317.744 95.0944 318.88 93.803C320.069 92.5116 320.663 90.652 320.663 88.2242V64.5142H328.876V102.404Z" stroke="#022B5A" stroke-width="0.5"/>
<path d="M365.108 92.1758C365.056 95.4818 363.765 98.1679 361.234 100.234C358.703 102.249 355.216 103.282 350.773 103.333C345.711 103.282 341.062 101.345 336.826 97.5222L342.25 92.0984C345.401 94.5778 348.242 95.8434 350.773 95.895C352.581 95.9467 354.105 95.5851 355.345 94.8103C356.636 93.9838 357.256 92.9765 357.204 91.7884C357.256 90.6003 356.688 89.4897 355.5 88.4566C354.312 87.4235 352.401 86.3904 349.766 85.3573C345.944 84.0659 343.154 82.4646 341.398 80.5533C339.642 78.6421 338.763 76.4209 338.763 73.8897C338.608 71.3586 339.642 69.0083 341.863 66.8388C344.136 64.6176 347.106 63.507 350.773 63.507C356.352 63.6103 360.975 65.599 364.643 69.4732L359.452 74.6646C356.92 72.3401 354.079 71.1262 350.928 71.0229C349.637 71.0229 348.604 71.307 347.829 71.8752C347.106 72.3917 346.718 73.1149 346.667 74.0447C346.615 74.8712 346.899 75.5427 347.519 76.0593C348.191 76.5758 349.818 77.3248 352.401 78.3063C356.068 79.4427 359.09 81.0957 361.466 83.2652C363.894 85.4348 365.108 88.405 365.108 92.1758Z" stroke="#022B5A" stroke-width="0.5"/>
<path d="M409.413 64.5142L386.943 121.077H377.8L385.393 102.404L370.826 64.5142H379.737L390.12 91.0911L400.115 64.5142H409.413Z" stroke="#022B5A" stroke-width="0.5"/>
<path d="M289.229 143.861C289.229 148.045 287.963 151.686 285.432 154.786C282.952 157.833 279.311 159.357 274.507 159.357H254.051V107.443H273.732C277.813 107.443 281.222 108.709 283.96 111.24C286.697 113.72 288.066 117.206 288.066 121.7C288.015 126.918 286.336 130.533 283.03 132.548C287.162 134.873 289.229 138.643 289.229 143.861ZM280.163 122.32C280.163 120.409 279.646 118.859 278.613 117.671C277.632 116.483 276.185 115.889 274.274 115.889H262.264V128.519H274.197C275.953 128.519 277.374 127.873 278.458 126.582C279.543 125.239 280.111 123.818 280.163 122.32ZM280.783 144.093C280.731 142.182 280.163 140.58 279.078 139.289C277.993 137.946 276.573 137.249 274.817 137.197H262.187V151.144H274.507C276.418 151.144 277.942 150.421 279.078 148.975C280.215 147.528 280.783 145.901 280.783 144.093Z" stroke="#022B5A" stroke-width="0.5"/>
<path d="M328.876 159.357H320.818V157.42C318.545 159.331 315.523 160.287 311.752 160.287C307.361 160.287 304.081 158.789 301.912 155.793C299.742 152.797 298.657 149.31 298.657 145.333V121.468H306.638V145.178C306.535 147.141 307.18 148.923 308.575 150.524C309.97 152.074 311.726 152.797 313.844 152.694C316.065 152.694 317.744 152.048 318.88 150.757C320.069 149.465 320.663 147.606 320.663 145.178V121.468H328.876V159.357Z" stroke="#022B5A" stroke-width="0.5"/>
<path d="M365.108 149.129C365.056 152.435 363.765 155.122 361.234 157.188C358.703 159.202 355.216 160.235 350.773 160.287C345.711 160.235 341.062 158.298 336.826 154.476L342.25 149.052C345.401 151.531 348.242 152.797 350.773 152.849C352.581 152.9 354.105 152.539 355.345 151.764C356.636 150.937 357.256 149.93 357.204 148.742C357.256 147.554 356.688 146.443 355.5 145.41C354.312 144.377 352.401 143.344 349.766 142.311C345.944 141.02 343.154 139.418 341.398 137.507C339.642 135.596 338.763 133.375 338.763 130.843C338.608 128.312 339.642 125.962 341.863 123.792C344.136 121.571 347.106 120.461 350.773 120.461C356.352 120.564 360.975 122.553 364.643 126.427L359.452 131.618C356.92 129.294 354.079 128.08 350.928 127.976C349.637 127.976 348.604 128.261 347.829 128.829C347.106 129.345 346.718 130.069 346.667 130.998C346.615 131.825 346.899 132.496 347.519 133.013C348.191 133.529 349.818 134.278 352.401 135.26C356.068 136.396 359.09 138.049 361.466 140.219C363.894 142.388 365.108 145.359 365.108 149.129Z" stroke="#022B5A" stroke-width="0.5"/>
<path fill-rule="evenodd" clip-rule="evenodd" d="M229.509 42.1392L136.312 42.1392V163.813H164.883C164.869 164.123 164.861 164.434 164.861 164.747C164.861 175.669 173.715 184.523 184.637 184.523C195.559 184.523 204.413 175.669 204.413 164.747C204.413 164.434 204.405 164.123 204.391 163.813H212.461H222.69H229.509V108.863H225.699V57.839H229.509V42.1392Z" fill="url(#paint7_linear)"/>
<path fill-rule="evenodd" clip-rule="evenodd" d="M229.509 42.1392L136.312 42.1392V163.813H164.883C164.869 164.123 164.861 164.434 164.861 164.747C164.861 175.669 173.715 184.523 184.637 184.523C195.559 184.523 204.413 175.669 204.413 164.747C204.413 164.434 204.405 164.123 204.391 163.813H212.461H222.69H229.509V108.863H225.699V57.839H229.509V42.1392Z" fill="url(#paint8_linear)" fill-opacity="0.5"/>
<path d="M211.689 59.0332C211.689 58.4809 212.136 58.0332 212.689 58.0332H223.609V109.689H212.689C212.136 109.689 211.689 109.241 211.689 108.689V59.0332Z" fill="#D8F1F7"/>
<path d="M227.583 136.841C227.583 141.23 227.583 140.815 227.583 144.788C223.194 144.788 221.623 141.23 221.623 136.841C221.623 132.452 223.194 128.894 227.583 128.894C227.583 132.868 227.583 132.452 227.583 136.841Z" fill="#D8F1F6"/>
<path d="M129.09 70.2245L60.241 57.6718L129.09 45.1191V70.2245Z" fill="url(#paint9_linear)" stroke="#B38B29" stroke-width="1.5"/>
<path d="M129.09 70.2245L60.241 57.6718L129.09 45.1191V70.2245Z" fill="url(#paint10_linear)" stroke="#B38B29" stroke-width="1.5"/>
<path d="M129.09 114.421L60.6094 102.975L129.09 91.5304V114.421Z" fill="url(#paint11_linear)" stroke="#B38B29" stroke-width="1.5"/>
<path d="M129.09 114.421L60.6094 102.975L129.09 91.5304V114.421Z" fill="url(#paint12_linear)" stroke="#B38B29" stroke-width="1.5"/>
<path d="M129.09 160.833L60.241 148.28L129.09 135.727V160.833Z" fill="url(#paint13_linear)" stroke="#B38B29" stroke-width="1.5"/>
<path d="M129.09 160.833L60.241 148.28L129.09 135.727V160.833Z" fill="url(#paint14_linear)" stroke="#B38B29" stroke-width="1.5"/>
<defs>
<filter id="filter0_d" x="0" y="0" width="469.735" height="230" filterUnits="userSpaceOnUse" color-interpolation-filters="sRGB">
<feFlood flood-opacity="0" result="BackgroundImageFix"/>
<feColorMatrix in="SourceAlpha" type="matrix" values="0 0 0 0 0 0 0 0 0 0 0 0 0 0 0 0 0 0 127 0"/>
<feOffset dy="2"/>
<feGaussianBlur stdDeviation="7.5"/>
<feColorMatrix type="matrix" values="0 0 0 0 0 0 0 0 0 0 0 0 0 0 0 0 0 0 0.15 0"/>
<feBlend mode="normal" in2="BackgroundImageFix" result="effect1_dropShadow"/>
<feBlend mode="normal" in="SourceGraphic" in2="effect1_dropShadow" result="shape"/>
</filter>
<linearGradient id="paint0_linear" x1="331.556" y1="50.0859" x2="331.556" y2="163.993" gradientUnits="userSpaceOnUse">
<stop stop-color="#B38B29"/>
<stop offset="0.557292" stop-color="#FAEED2"/>
<stop offset="1" stop-color="#B38B29"/>
</linearGradient>
<linearGradient id="paint1_linear" x1="331.556" y1="50.0859" x2="331.556" y2="163.993" gradientUnits="userSpaceOnUse">
<stop stop-color="#B38B29"/>
<stop offset="0.557292" stop-color="#FAEED2"/>
<stop offset="1" stop-color="#B38B29"/>
</linearGradient>
<linearGradient id="paint2_linear" x1="331.556" y1="50.0859" x2="331.556" y2="163.993" gradientUnits="userSpaceOnUse">
<stop stop-color="#B38B29"/>
<stop offset="0.557292" stop-color="#FAEED2"/>
<stop offset="1" stop-color="#B38B29"/>
</linearGradient>
<linearGradient id="paint3_linear" x1="331.556" y1="50.0859" x2="331.556" y2="163.993" gradientUnits="userSpaceOnUse">
<stop stop-color="#B38B29"/>
<stop offset="0.557292" stop-color="#FAEED2"/>
<stop offset="1" stop-color="#B38B29"/>
</linearGradient>
<linearGradient id="paint4_linear" x1="331.556" y1="50.0859" x2="331.556" y2="163.993" gradientUnits="userSpaceOnUse">
<stop stop-color="#B38B29"/>
<stop offset="0.557292" stop-color="#FAEED2"/>
<stop offset="1" stop-color="#B38B29"/>
</linearGradient>
<linearGradient id="paint5_linear" x1="331.556" y1="50.0859" x2="331.556" y2="163.993" gradientUnits="userSpaceOnUse">
<stop stop-color="#B38B29"/>
<stop offset="0.557292" stop-color="#FAEED2"/>
<stop offset="1" stop-color="#B38B29"/>
</linearGradient>
<linearGradient id="paint6_linear" x1="331.556" y1="50.0859" x2="331.556" y2="163.993" gradientUnits="userSpaceOnUse">
<stop stop-color="#B38B29"/>
<stop offset="0.557292" stop-color="#FAEED2"/>
<stop offset="1" stop-color="#B38B29"/>
</linearGradient>
<linearGradient id="paint7_linear" x1="229.509" y1="114.625" x2="136.312" y2="114.625" gradientUnits="userSpaceOnUse">
<stop stop-color="#074C9C"/>
<stop offset="0.494792" stop-color="#074C9C" stop-opacity="0.5944"/>
<stop offset="0.71875" stop-color="#074C9C" stop-opacity="0.22"/>
<stop offset="0.90625" stop-color="#FFF5DB" stop-opacity="0.1222"/>
</linearGradient>
<linearGradient id="paint8_linear" x1="229.509" y1="114.625" x2="136.312" y2="114.625" gradientUnits="userSpaceOnUse">
<stop stop-color="#074C9C"/>
<stop offset="0.494792" stop-color="#074C9C" stop-opacity="0.5944"/>
<stop offset="0.71875" stop-color="#074C9C" stop-opacity="0.22"/>
<stop offset="0.90625" stop-color="#FFF5DB" stop-opacity="0.1222"/>
</linearGradient>
<linearGradient id="paint9_linear" x1="56.0596" y1="57.6718" x2="128.546" y2="57.6718" gradientUnits="userSpaceOnUse">
<stop stop-color="#FFEEC7"/>
<stop offset="1" stop-color="#FFEEC7" stop-opacity="0"/>
</linearGradient>
<linearGradient id="paint10_linear" x1="56.0596" y1="57.6718" x2="128.546" y2="57.6718" gradientUnits="userSpaceOnUse">
<stop stop-color="#FFEEC7"/>
<stop offset="1" stop-color="#FFEEC7" stop-opacity="0"/>
</linearGradient>
<linearGradient id="paint11_linear" x1="56.0596" y1="102.975" x2="128.546" y2="102.975" gradientUnits="userSpaceOnUse">
<stop stop-color="#FFEEC7"/>
<stop offset="1" stop-color="#FFEEC7" stop-opacity="0"/>
</linearGradient>
<linearGradient id="paint12_linear" x1="56.0596" y1="102.975" x2="128.546" y2="102.975" gradientUnits="userSpaceOnUse">
<stop stop-color="#FFEEC7"/>
<stop offset="1" stop-color="#FFEEC7" stop-opacity="0"/>
</linearGradient>
<linearGradient id="paint13_linear" x1="56.0596" y1="148.28" x2="128.546" y2="148.28" gradientUnits="userSpaceOnUse">
<stop stop-color="#FFEEC7"/>
<stop offset="1" stop-color="#FFEEC7" stop-opacity="0"/>
</linearGradient>
<linearGradient id="paint14_linear" x1="56.0596" y1="148.28" x2="128.546" y2="148.28" gradientUnits="userSpaceOnUse">
<stop stop-color="#FFEEC7"/>
<stop offset="1" stop-color="#FFEEC7" stop-opacity="0"/>
</linearGradient>
</defs>
</svg>
